<?xml version="1.0" standalone="no"?>

<!DOCTYPE svg PUBLIC "-//W3C//DTD SVG 20010904//EN"

 "http://www.w3.org/TR/2001/REC-SVG-20010904/DTD/svg10.dtd">

<svg version="1.0" xmlns="http://www.w3.org/2000/svg"

 width="196.000000pt" height="91.000000pt" viewBox="0 0 196.000000 91.000000"

 preserveAspectRatio="xMidYMid meet">

<path fill="#000000" stroke="none" d="
M79 88

C73 85 62 74 62 72

C62 71 61 71 59 71

C57 71 55 71 53 71

C48 69 38 67 34 67

L30 67

L30 61

C29 54 31 54 37 57

C42 60 49 60 53 58

C56 56 60 57 60 59

C60 60 57 60 50 60

C42 60 40 60 37 58

C32 55 31 56 31 61

C30 65 32 68 33 66

C34 66 33 65 33 65

C31 64 31 62 32 63

C33 63 34 63 35 62

C37 62 38 62 39 63

C42 65 43 65 42 63

C41 62 41 62 43 63

C45 64 45 64 44 65

C42 66 39 66 39 64

C39 63 38 63 37 63

C35 63 34 64 35 65

C35 66 36 65 37 64

C37 63 37 63 37 65

C38 67 40 68 43 67

C45 67 46 67 45 67

C44 68 45 68 48 69

C51 69 54 70 56 70

C58 71 59 70 61 69

C62 68 62 67 61 67

C60 67 60 66 60 65

C60 64 59 63 57 64

C56 64 54 64 54 63

C53 62 54 62 56 62

C59 62 60 62 60 63

C60 63 60 64 61 65

C62 66 62 67 62 68

C62 71 64 75 66 75

C66 75 66 74 65 73

C64 71 63 70 64 70

C64 69 65 70 66 72

C68 74 68 75 68 75

C67 75 67 75 67 76

C67 78 77 86 81 88

C83 88 85 89 85 90

C85 91 85 91 79 88

Z

M58 58

C57 57 56 57 55 58

C54 59 55 60 57 60

C58 60 59 59 58 58

Z

M88 90

C87 88 91 88 93 88

C95 89 95 89 93 90

C92 90 92 90 92 89

C92 89 91 89 90 89

C89 90 88 90 88 90

Z

M101 90

C101 89 101 89 102 88

C103 88 106 88 106 90

C106 90 105 90 104 90

C103 89 103 89 102 90

C101 91 101 91 101 90

Z

M110 90

C110 89 110 89 111 89

C114 89 123 82 128 76

C131 73 133 71 133 71

C133 73 125 81 121 85

C115 88 110 91 110 90

Z

M80 86

C76 83 68 77 69 77

C69 76 71 77 72 79

C76 82 80 84 84 86

C87 87 87 87 86 87

C85 87 82 87 80 86

Z

M110 86

C115 85 124 78 128 72

C130 70 132 68 132 69

C132 70 129 73 126 76

C120 82 112 88 108 87

C107 87 107 87 110 86

Z

M86 85

C81 83 77 81 74 78

C71 75 71 75 73 74

C75 72 75 71 75 68

C74 63 73 62 73 66

C73 68 72 69 72 68

C72 68 72 66 72 64

C73 60 72 60 90 48

C98 42 100 40 99 38

C98 36 94 37 90 40

C89 41 87 43 86 43

C84 42 73 33 73 31

C73 29 72 29 71 31

C68 35 65 46 65 50

C65 55 67 64 70 68

C71 69 71 71 71 73

C70 75 68 74 65 67

C56 49 63 28 80 19

C83 18 85 17 85 17

C85 20 86 22 87 22

C88 22 88 22 86 23

C82 25 78 29 77 30

C77 31 79 33 81 35

L85 39

L89 36

C93 33 96 32 100 34

C105 35 104 41 99 46

C96 49 86 55 85 55

C85 55 83 57 82 58

C80 59 79 61 78 61

C76 61 75 64 76 69

L76 72

L97 72

L119 73

L119 67

L119 62

L119 67

C119 70 120 72 121 73

C123 74 123 76 120 79

C115 83 104 87 103 85

C103 85 102 85 101 85

C101 85 101 85 101 86

C102 87 91 86 86 85

Z

M94 84

C94 84 96 83 99 83

C104 83 111 80 115 78

C117 77 114 77 98 77

C88 77 80 77 80 77

C80 78 83 79 86 81

C90 82 92 83 90 83

C85 82 78 78 78 77

C78 76 82 76 98 76

C111 75 118 76 118 76

C118 78 112 81 108 82

C107 82 106 83 106 84

C106 85 110 84 115 81

C118 79 119 78 119 76

L119 73

L97 73

C77 73 76 73 76 75

C77 76 76 77 76 77

C75 77 75 76 75 76

C75 75 75 74 75 74

C74 74 73 74 73 74

C72 76 79 81 85 83

C90 85 93 86 94 84

Z

M99 85

C98 84 97 84 96 84

C94 85 94 86 97 85

C99 85 100 85 99 85

Z

M105 85

C105 84 104 84 103 84

C103 84 103 84 103 85

C103 85 104 86 104 86

C104 86 105 85 105 85

Z

M122 74

C122 74 121 74 121 74

C120 74 120 75 120 76

C120 76 120 76 121 76

C121 76 122 75 122 74

Z

M69 69

C67 66 64 58 64 56

C64 56 64 56 64 56

C63 56 63 56 63 58

C63 59 63 60 63 60

C64 60 64 61 64 62

C64 64 69 73 70 72

C71 72 70 70 69 69

Z

M101 42

C101 41 101 41 100 41

C100 41 100 41 100 41

C100 42 94 46 87 52

C79 57 74 61 74 62

C74 63 100 44 101 42

Z

M63 50

C63 47 63 46 62 48

C62 51 62 55 63 55

C63 55 63 53 63 50

Z

M66 40

C67 37 69 33 69 32

C70 30 70 30 68 32

C66 34 64 39 63 43

C62 48 64 46 66 40

Z

M89 40

C90 38 92 37 94 36

C96 36 98 35 98 34

C98 33 94 34 90 37

C88 38 86 40 86 40

C85 40 83 38 80 35

L75 31

L77 28

C78 27 80 25 82 24

C83 23 85 21 85 20

C85 18 85 18 79 21

C75 24 68 30 71 29

C71 29 75 32 78 35

C82 39 85 42 86 42

C87 42 88 41 89 40

Z

M103 38

C103 36 100 34 99 35

C98 35 99 36 99 36

C100 36 101 37 101 38

C101 39 101 40 102 40

C102 40 103 39 103 38

Z

M126 72

C127 70 128 69 128 69

C128 69 128 70 127 72

C126 73 125 75 124 75

C124 75 124 73 126 72

Z

M124 69

C126 67 127 65 128 63

C128 61 129 61 128 64

C127 67 125 72 123 72

C123 72 123 70 124 69

Z

M134 69

C132 66 134 61 137 63

C139 63 139 63 137 63

C135 64 133 66 134 68

C136 71 140 71 142 69

C143 68 144 68 147 69

L151 69

L147 70

C134 72 135 72 134 69

Z

M122 66

C122 64 122 63 122 64

C122 66 122 67 122 68

C122 69 122 68 122 66

Z

M136 68

C136 67 136 66 137 65

C137 64 137 64 137 65

C137 66 138 66 139 66

C140 65 140 66 139 67

C137 69 137 69 136 68

Z

M150 67

C148 66 148 66 149 66

C150 67 152 67 154 67

C162 66 165 65 165 63

C165 62 164 62 163 63

C163 64 161 64 159 64

C157 63 156 64 156 64

C155 65 154 65 152 65

C148 64 148 62 151 62

C152 61 152 62 151 62

C149 63 149 63 151 63

C152 63 153 63 153 63

C153 62 153 63 153 63

C152 65 154 65 155 63

C155 63 157 62 159 63

C162 63 162 63 162 61

C162 60 161 60 160 60

L157 61

L159 59

C161 58 162 57 163 59

C163 59 164 60 164 59

C164 59 164 58 164 57

C162 56 162 56 158 58

C155 60 152 61 150 60

L146 60

L150 60

C152 60 155 58 158 57

C163 53 165 54 165 60

C166 65 164 67 161 67

C159 67 157 68 155 68

C153 68 151 68 150 67

Z

M56 67

C56 66 56 66 56 66

C57 66 58 66 58 65

C58 65 58 65 58 66

C58 67 56 68 56 67

Z

M48 66

C45 65 46 63 49 63

C51 63 52 63 52 64

C52 65 52 65 52 65

C53 65 54 65 54 65

C55 67 50 67 48 66

Z

M51 65

C51 64 50 64 49 64

C48 64 48 64 48 65

C48 65 49 66 50 66

C50 66 51 65 51 65

Z

M130 65

C130 64 130 63 131 63

C131 63 132 63 132 63

C132 64 131 65 131 65

C130 65 130 65 130 65

Z

M141 64

C141 62 141 62 143 62

C145 62 146 62 146 64

C146 65 145 66 143 66

C141 66 141 65 141 64

Z

M145 64

C145 63 144 63 143 63

C142 63 142 63 142 64

C142 64 142 65 143 65

C144 65 145 64 145 64

Z

M32 60

C31 58 33 58 36 59

C37 60 37 60 36 60

C35 60 34 60 34 59

C33 59 33 59 32 60

C32 62 32 62 32 60

Z

M103 60

C105 60 108 60 112 60

C115 60 118 60 118 60

C120 59 119 58 115 54

C114 53 113 52 114 52

C114 51 121 58 121 59

C121 61 121 61 109 61

C103 61 101 61 103 60

Z

M22 60

C21 59 21 57 21 55

C21 51 21 51 21 53

C22 56 22 56 24 54

C25 53 27 52 28 51

C32 50 45 49 42 50

C40 51 40 51 42 52

C43 52 41 52 37 53

C30 54 29 55 26 57

C23 61 23 61 22 60

Z

M29 54

C31 52 32 52 32 52

C29 51 21 57 22 59

C22 59 23 59 24 58

C25 56 27 55 29 54

Z

M39 51

C40 51 38 51 37 51

C35 51 34 51 34 52

C34 53 38 52 39 51

Z

M129 59

C129 59 129 59 129 59

C132 60 131 58 128 55

C126 52 126 52 125 54

C125 55 125 56 125 57

C126 58 126 59 126 58

C126 57 127 57 128 57

C128 57 128 57 128 58

C127 59 126 59 125 59

C123 58 123 53 125 52

C127 51 133 57 132 59

C131 61 129 61 129 59

Z

M136 59

C136 58 137 58 140 58

C142 58 143 58 142 58

C141 58 141 59 141 60

C141 60 139 61 138 61

C136 61 136 60 136 59

Z

M139 59

C139 59 138 59 137 59

C137 59 137 59 138 59

C139 59 140 59 139 59

Z

M168 57

C165 54 163 54 157 53

C153 52 151 52 152 52

C153 51 154 51 152 50

C151 50 152 50 155 50

C158 50 158 50 158 51

C157 52 158 53 159 53

C161 53 162 52 162 51

C162 51 161 51 160 51

C160 52 159 51 160 51

C160 50 162 50 165 51

C168 52 170 52 170 52

C170 52 171 53 171 54

C171 54 169 54 167 53

C166 52 164 52 163 52

C163 52 164 53 165 53

C167 54 169 56 171 57

L174 60

L174 51

C174 46 174 42 174 42

C175 42 175 59 174 60

C173 60 171 59 168 57

Z

M100 59

C100 59 101 58 104 57

C106 55 109 53 110 52

C111 51 113 51 113 51

C113 53 105 58 102 59

C101 59 100 59 100 59

Z

M113 57

C113 55 113 55 113 55

C113 56 113 57 113 58

C113 58 113 58 113 57

Z

M135 53

C135 51 136 49 136 49

C136 48 136 49 136 50

C136 53 138 53 139 50

C140 48 141 47 144 48

C145 48 148 49 148 50

C149 51 149 52 144 52

C140 52 139 52 139 53

C139 55 138 55 137 55

C137 55 136 55 135 56

C135 56 135 55 135 53

Z

M145 50

C144 50 143 50 142 50

C141 50 142 50 144 50

C145 50 146 50 145 50

Z

M57 53

C57 51 57 51 57 52

C57 53 57 54 57 55

C57 55 57 55 57 53

Z

M172 51

C172 47 172 46 172 48

C172 49 172 52 172 53

C172 55 172 54 172 51

Z

M119 51

C119 51 119 50 120 50

C122 49 123 50 120 51

C119 52 119 52 119 51

Z

M44 50

C44 48 44 48 45 48

C45 48 46 48 46 49

C46 50 47 51 50 51

C53 51 55 50 55 49

C55 47 53 46 48 46

C45 47 43 46 44 46

C44 46 46 46 49 45

C52 45 54 45 54 44

C54 42 52 42 50 43

C49 44 48 44 47 43

C47 42 42 42 37 42

C31 42 28 42 26 43

C24 44 23 46 23 46

C23 47 23 48 22 48

C20 49 19 49 19 47

C19 42 19 42 9 41

C1 41 0 41 1 40

C1 39 1 39 1 39

C0 39 0 38 0 37

C0 35 0 36 1 38

C3 40 4 40 11 40

C19 41 21 42 21 45

C20 47 21 48 21 48

C22 48 22 47 22 46

C22 46 22 44 23 43

C23 42 23 41 22 39

C21 37 21 37 12 37

L3 37

L12 38

L21 38

L12 38

C4 38 2 38 3 37

C3 36 3 35 4 35

C4 35 8 36 13 36

L22 36

L23 39

C25 42 25 42 27 41

C29 40 47 40 48 42

C48 42 49 42 50 42

C53 40 58 44 56 45

C55 46 54 47 55 47

C55 47 56 47 57 46

C59 45 59 45 56 42

C53 38 53 38 58 38

C61 39 61 39 58 36

C55 34 54 34 40 34

C26 34 24 34 25 35

C25 37 26 37 32 37

L39 37

L32 37

L25 36

L32 36

C38 36 40 36 40 37

C40 38 38 39 33 39

C29 39 26 39 26 39

C25 39 24 38 24 36

C23 34 22 34 11 33

C3 33 9 33 27 33

L55 33

L58 35

C62 38 62 39 58 40

C55 40 55 40 57 41

C60 43 60 46 58 47

C56 47 56 49 56 50

C56 51 55 52 50 52

C46 52 45 51 44 50

Z

M118 47

C121 43 121 41 120 41

C119 41 118 41 118 42

C118 44 114 51 114 49

C114 48 114 47 115 47

C115 47 116 45 117 43

C118 41 119 40 120 40

C121 40 121 35 119 34

C118 34 118 33 118 32

C118 31 117 30 115 28

C113 26 113 25 115 23

C118 20 120 21 119 24

C119 26 119 28 120 28

C120 29 121 28 120 27

C119 25 120 25 122 27

C123 28 124 29 124 29

C125 28 130 35 131 38

C131 39 130 38 129 35

C127 31 124 27 124 29

C124 30 124 31 124 31

C126 32 128 37 129 40

C129 42 130 44 131 44

C133 44 134 46 132 47

C130 48 130 48 130 46

C130 43 126 34 123 31

L121 28

L121 36

C122 43 120 49 117 50

C116 51 116 49 118 47

Z

M132 46

C132 45 132 45 132 45

C131 45 131 45 131 46

C131 46 131 47 131 47

C131 47 132 46 132 46

Z

M119 29

C118 28 118 25 118 24

C119 22 117 22 116 24

C115 24 115 26 117 29

C120 34 122 34 119 29

Z

M48 49

C48 49 49 49 50 48

C51 48 53 48 53 49

C53 49 51 50 50 50

C49 50 48 49 48 49

Z

M31 47

C28 47 26 46 25 45

C24 44 24 44 26 45

C30 47 32 47 32 46

C32 45 34 45 37 45

C41 45 43 45 43 46

C43 47 41 48 40 48

C38 49 38 49 31 47

Z

M41 47

C42 46 41 46 37 46

C33 46 33 46 34 47

C37 48 39 48 41 47

Z

M153 48

C152 48 152 47 152 46

C152 45 153 45 158 45

C161 45 164 45 164 46

C164 47 164 47 169 45

C170 45 170 45 169 46

C166 47 156 49 153 48

Z

M161 47

C162 46 162 46 158 46

C154 46 152 46 154 47

C155 48 157 48 161 47

Z

M136 45

C135 41 137 40 139 42

C141 43 141 43 140 45

C139 47 139 47 139 45

C139 44 139 43 138 43

C137 43 137 44 137 45

C138 47 137 47 136 45

Z

M142 45

C142 45 150 45 150 46

C151 46 149 46 147 46

C144 46 142 46 142 45

Z

M28 44

C29 44 30 44 30 44

C31 44 30 44 29 44

C28 44 28 44 28 44

Z

M168 42

C168 42 162 42 155 42

C142 42 140 41 140 37

C140 34 139 34 137 36

L135 38

L137 39

C139 39 139 39 136 39

C133 40 133 38 136 35

C138 34 143 34 143 36

C143 36 143 36 144 36

C144 35 145 36 144 36

C144 37 144 38 144 38

C145 38 146 37 146 36

C147 34 147 34 145 33

C143 33 149 33 157 33

C169 33 169 33 160 33

C149 34 148 34 148 36

C147 39 143 40 143 38

C143 37 142 36 142 36

C140 35 140 38 141 39

C142 41 145 41 155 41

C161 41 167 41 169 42

C170 42 170 42 170 42

C170 41 171 40 172 38

C174 36 175 36 183 35

C188 35 192 35 192 36

C192 36 188 37 183 37

L174 37

L183 38

L192 38

L183 38

C174 38 173 38 172 41

C171 44 169 44 168 42

Z

M180 41

C189 40 194 39 193 38

C192 38 193 37 193 38

C194 38 195 38 195 37

C195 36 194 36 193 36

C193 36 193 36 193 35

C193 34 191 34 184 34

C175 33 174 34 172 36

C169 39 169 39 162 39

C157 38 156 38 156 37

C156 36 157 35 163 36

C168 36 170 36 171 35

C172 33 175 33 183 33

L194 33

L195 36

C196 40 195 41 184 41

C178 41 176 41 180 41

Z

M166 37

C164 37 161 37 159 37

C157 37 159 37 163 37

C167 37 168 37 166 37

Z

M49 38

C47 36 47 35 50 36

C52 36 52 36 51 37

C50 37 49 37 50 37

C51 37 52 37 52 36

C53 34 53 34 53 36

C54 38 51 40 49 38

Z

M42 38

C41 36 42 35 44 36

C46 36 47 39 45 39

C44 39 43 38 42 38

Z

M45 37

C45 37 44 37 43 37

C43 37 43 37 44 37

C45 37 46 37 45 37

Z

M149 38

C148 37 149 36 152 36

C153 36 154 36 154 37

C154 38 150 39 149 38

Z

M152 37

C152 37 151 37 150 37

C150 37 150 37 151 37

C152 37 153 37 152 37

Z

M61 33

C62 33 64 32 64 31

C64 31 66 28 69 24

C72 21 74 19 74 19

C73 19 66 26 62 31

C61 32 60 32 59 32

C57 32 57 32 59 31

C60 31 62 29 63 27

C67 21 77 14 83 12

C89 10 89 10 89 7

C88 6 89 5 90 4

C91 4 92 3 92 2

C92 0 94 0 98 0

C100 0 100 0 99 0

C98 0 96 1 95 1

C92 2 91 4 93 6

C94 8 100 8 101 6

C102 5 102 3 102 2

C102 0 102 0 102 1

C105 4 102 8 98 9

C95 9 95 9 98 9

L101 10

L98 10

C96 10 94 10 93 8

C90 5 89 5 91 8

C93 12 97 13 100 12

C103 11 103 11 101 12

C99 14 97 14 94 12

C93 12 93 12 93 12

C93 13 90 14 88 14

C79 17 69 24 65 31

C64 33 62 34 61 34

C59 34 59 34 61 33

Z

M79 17

C81 16 85 14 87 14

C92 12 93 10 89 11

C84 12 77 16 75 17

C74 19 75 19 79 17

Z

M129 30

C123 22 114 16 105 14

C104 14 102 13 103 13

C103 13 105 13 107 13

C111 14 112 13 108 12

C105 11 103 9 104 8

C105 8 105 8 105 9

C105 9 106 10 108 11

C115 13 121 17 125 20

C131 26 136 33 135 33

C134 33 133 31 131 29

C130 28 129 27 129 27

C128 28 132 33 134 34

C136 34 136 34 134 34

C132 34 131 33 129 30

Z

M124 21

C121 18 118 17 118 17

C117 17 119 18 121 20

C124 23 127 25 127 26

C127 26 128 26 128 26

C129 26 127 23 124 21

Z

M115 15

C114 13 112 13 112 14

C112 15 112 16 113 16

C115 16 116 16 115 15

Z

M30 31

C31 31 32 31 33 31

C33 31 33 31 32 31

C30 31 30 31 30 31

Z

M36 31

C37 31 38 31 39 31

C39 31 39 31 38 31

C36 31 36 31 36 31

Z

M49 31

C50 31 51 31 51 31

C52 31 51 31 50 31

C49 31 49 31 49 31

Z

M143 31

C144 31 145 31 146 31

C146 31 146 31 145 31

C143 31 143 31 143 31

Z

M153 31

C155 31 156 31 157 31

C158 31 157 31 155 31

C153 31 152 31 153 31

Z

M162 31

C163 31 164 31 165 31

C165 31 165 31 163 31

C161 31 161 31 162 31

Z

M110 24

C109 23 109 21 111 22

C112 23 113 23 114 22

C115 21 115 21 114 23

C112 25 111 25 110 24

Z

M88 20

C86 18 87 16 90 16

C92 16 95 15 97 15

C99 15 101 15 102 16

C104 17 104 17 101 16

C98 15 97 15 95 16

C93 17 91 17 89 17

C86 16 87 19 91 20

C92 21 93 21 91 21

C90 21 89 21 88 20

Z

M105 19

C105 18 105 18 107 18

C109 18 110 18 110 19

C110 20 109 21 107 21

C105 21 105 20 105 19

Z

M108 19

C108 19 107 19 106 19

C106 19 106 19 107 19

C108 19 109 19 108 19

Z

M95 19

C96 19 99 19 100 19

C102 19 101 19 98 19

C94 19 93 19 95 19

Z

M97 6

C94 5 94 3 96 2

C98 1 101 2 101 4

C101 6 100 6 97 6

Z

M99 3

C98 2 97 2 96 3

C95 4 96 5 98 5

C99 5 100 4 99 3

Z

M78 25

C78 24 78 23 79 23

C79 23 80 23 80 23

C80 24 79 25 79 25

C78 25 78 25 78 25

Z

"/>

</svg>

